<svg width="180" height="57" viewBox="0 0 180 57" fill="none" xmlns="http://www.w3.org/2000/svg">
<path d="M12.8481 5.64307C12.8481 5.64307 13.2763 6.31226 13.0739 6.67164C12.7682 7.21277 12.603 8.9367 11.8374 9.40623C10.7372 9.69401 9.45117 7.8379 9.45117 7.8379L11.0801 6.38523L12.8481 5.64307Z" fill="#191825"/>
<path d="M26.8295 5.64307C26.8295 5.64307 26.4012 6.31226 26.6037 6.67164C26.9093 7.21277 27.0746 8.9367 27.8401 9.40623C28.9403 9.69401 30.2264 7.8379 30.2264 7.8379L28.5975 6.38523L26.8295 5.64307Z" fill="#191825"/>
<path d="M19.9999 1.81885C9.95792 1.81885 1.81885 9.9593 1.81885 19.9999C1.81885 30.0405 9.9593 38.181 19.9999 38.181C30.0419 38.181 38.181 30.0405 38.181 19.9999C38.181 9.95792 30.0419 1.81885 19.9999 1.81885ZM17.5641 33.3245C16.9954 34.3586 15.3624 34.4605 14.1865 33.8312C10.4385 31.825 7.49183 29.4292 6.33795 25.8836C6.00198 24.8495 6.14381 23.6281 6.9562 23.098C7.37066 22.8281 7.792 22.6188 8.21885 22.466C13.3562 20.614 19.0732 26.8364 18.1245 31.7645C18.0199 32.3028 17.8367 32.8275 17.5641 33.3245ZM21.8753 31.7631C20.928 26.835 26.645 20.614 31.781 22.4646C32.2078 22.6175 32.6292 22.8254 33.0436 23.0966C33.8574 23.6268 33.9992 24.8495 33.6619 25.8822C32.508 29.4278 29.5614 31.8237 25.8133 33.8299C24.6374 34.4591 23.0044 34.3572 22.4357 33.3232C22.1631 32.8275 21.9799 32.3028 21.8753 31.7631ZM19.9999 12.9156C18.1397 12.9046 16.676 13.5627 15.5855 14.1383C12.53 15.7507 10.9989 18.1947 7.63503 18.444C7.45189 18.4577 7.26325 18.4646 7.06773 18.4646C2.68494 18.4646 6.82263 11.1049 9.31076 8.61541C12.0633 5.86291 16.0316 4.48735 20.0013 4.48735C23.9696 4.48735 27.9393 5.86429 30.6918 8.61541C33.18 11.1049 37.319 18.4646 32.9349 18.4646C32.7393 18.4646 32.5507 18.4577 32.3676 18.444C29.0037 18.1961 27.4725 15.7507 24.4171 14.1383C23.3238 13.5627 21.8602 12.9046 19.9999 12.9156Z" fill="white"/>
<path d="M20 40C14.6575 40 9.63442 37.9194 5.85749 34.1425C2.08055 30.3656 0 25.3425 0 20C0 14.6575 2.08055 9.63442 5.85749 5.85749C9.63442 2.08055 14.6575 0 20 0C25.3425 0 30.3656 2.08055 34.1425 5.85749C37.9208 9.63442 40.0014 14.6575 40.0014 20C40.0014 25.3425 37.9208 30.3656 34.1439 34.1425C30.3656 37.9194 25.3425 40 20 40ZM20 3.63787C10.9783 3.63787 3.63924 10.9769 3.63924 19.9986C3.63924 29.0203 10.9783 36.3594 20 36.3594C29.0217 36.3594 36.3608 29.0203 36.3608 19.9986C36.3621 10.9783 29.0217 3.63787 20 3.63787Z" fill="white"/>
<path d="M19.9998 38.9088C9.57364 38.9088 1.09033 30.4269 1.09033 19.9993C1.09033 9.57315 9.57226 1.08984 19.9998 1.08984C30.426 1.08984 38.9093 9.57177 38.9093 19.9993C38.9093 30.4269 30.426 38.9088 19.9998 38.9088ZM19.9998 2.54664C10.3764 2.54664 2.54713 10.3759 2.54713 19.9993C2.54713 29.6227 10.3764 37.452 19.9998 37.452C29.6232 37.452 37.4525 29.6227 37.4525 19.9993C37.4525 10.3759 29.6232 2.54664 19.9998 2.54664Z" fill="white"/>
<path d="M19.9998 32.4011C19.4201 32.4204 18.7647 32.2703 18.1244 31.7622C19.0717 26.8341 13.3547 20.6131 8.2187 22.4637C7.13092 20.8816 6.88583 19.9536 7.63488 18.4431C10.9987 18.1952 12.5299 15.7498 15.5853 14.1374C16.6758 13.5618 18.1395 12.9037 19.9998 12.9147C21.86 12.9037 23.3237 13.5618 24.4142 14.1374C27.4697 15.7498 29.0008 18.1939 32.3647 18.4431C33.1137 19.9536 32.8672 20.8816 31.7808 22.4637C26.6435 20.6118 20.9264 26.8341 21.8752 31.7622C21.2349 32.2703 20.5795 32.4204 19.9998 32.4011Z" fill="white"/>
<path d="M22.8333 18.1417C23.1994 16.5764 22.2272 15.0107 20.6618 14.6446C19.0965 14.2786 17.5308 15.2508 17.1648 16.8161C16.7987 18.3814 17.7709 19.9471 19.3362 20.3132C20.9016 20.6792 22.4673 19.707 22.8333 18.1417Z" fill="white"/>
<path d="M19.9996 23.0292C19.9969 23.0292 19.9928 23.0292 19.99 23.0292C18.7976 23.0292 17.8296 22.7166 17.8296 22.3325C17.8296 21.9483 18.7962 21.6357 19.99 21.6357C19.9928 21.6357 19.9969 21.6357 19.9996 21.6357C20.0024 21.6357 20.0065 21.6357 20.0093 21.6357C21.2017 21.6357 22.1697 21.9483 22.1697 22.3325C22.1697 22.7166 21.2031 23.0292 20.0093 23.0292C20.0065 23.0292 20.0024 23.0292 19.9996 23.0292Z" fill="white"/>
<path d="M38.9536 12.8566C38.9523 13.0866 38.8531 13.3138 38.6659 13.4473C36.1254 15.2566 37.0521 14.6411 34.3464 16.091C34.1578 16.1929 33.9251 16.1805 33.7295 16.0924C33.5863 16.0263 33.4349 15.9368 33.3495 15.8225C33.2215 15.6463 33.1733 15.2208 33.1554 14.9688C33.154 14.9454 33.1485 14.9248 33.1416 14.9027C33.132 14.8752 33.1182 14.8477 33.0989 14.8256C33.0796 14.8022 33.0562 14.7816 33.0287 14.7664C33.0053 14.7527 32.9805 14.743 32.953 14.7389C32.6817 14.6838 32.1956 14.553 31.9753 14.2859C31.7536 14.016 31.7013 13.4157 31.6903 13.0838C31.6889 13.048 31.6807 13.0122 31.6641 12.9833C31.6517 12.9558 31.6338 12.931 31.6118 12.9103C31.5884 12.8883 31.5622 12.8718 31.532 12.8594C31.5085 12.8497 31.4851 12.8428 31.4576 12.8415C31.0789 12.8112 30.3354 12.7024 30.0228 12.3141C29.713 11.9299 29.7557 11.1644 29.8039 10.7678C29.808 10.7361 29.8053 10.7045 29.797 10.6755C29.7901 10.6466 29.7777 10.6191 29.7612 10.5957C29.7461 10.5709 29.7254 10.5489 29.7006 10.5323C29.6703 10.5089 29.6318 10.4938 29.5918 10.4855C28.6307 10.3162 28.3843 9.7709 28.3843 9.27658C28.3843 6.79534 34.4731 4.03459 35.6958 4.953C36.0263 5.20085 36.1502 5.90447 36.1901 6.22529C36.2025 6.32305 36.2686 6.40429 36.3609 6.43459C36.6941 6.54336 37.4624 6.84078 37.6896 7.32133C37.8934 7.75232 37.6993 8.47383 37.5629 8.87314C37.5134 9.01772 37.6029 9.17194 37.753 9.20361C38.0297 9.25868 38.5116 9.55472 38.6824 9.79569C39.0555 10.3217 38.5268 11.3709 38.4855 11.5031C38.4579 11.5912 38.4786 11.6876 38.5433 11.7537C38.6562 11.8707 38.827 12.069 38.8917 12.2466C38.944 12.3885 38.9536 12.6418 38.9536 12.8566Z" fill="#191825"/>
<path d="M32.6415 8.39941L29.7995 10.6755C29.7926 10.6466 29.7802 10.619 29.7637 10.5956C29.7486 10.5708 29.7279 10.5488 29.7031 10.5323L32.6415 8.39941Z" fill="#191825"/>
<path d="M34.5638 10.5381L31.6654 12.9849C31.653 12.9574 31.6351 12.9326 31.6131 12.9119C31.5897 12.8899 31.5635 12.8734 31.5332 12.861L34.5638 10.5381Z" fill="#191825"/>
<path d="M36.0458 12.7549L33.1432 14.9043C33.1335 14.8767 33.1198 14.8492 33.1005 14.8272C33.0812 14.8038 33.0578 14.7831 33.0303 14.768L36.0458 12.7549Z" fill="#191825"/>
<path d="M0.724231 12.8566C0.725608 13.0866 0.824747 13.3138 1.01201 13.4473C3.55246 15.2566 2.62578 14.6411 5.33146 16.091C5.5201 16.1929 5.7528 16.1805 5.94833 16.0924C6.09153 16.0263 6.24299 15.9368 6.32836 15.8225C6.45642 15.6463 6.50461 15.2208 6.52251 14.9688C6.52389 14.9454 6.5294 14.9248 6.53628 14.9027C6.54592 14.8752 6.55969 14.8477 6.57896 14.8256C6.59824 14.8022 6.62165 14.7816 6.64919 14.7664C6.6726 14.7527 6.69738 14.743 6.72492 14.7389C6.99618 14.6838 7.48224 14.553 7.70255 14.2859C7.92423 14.016 7.97656 13.4157 7.98757 13.0838C7.98895 13.048 7.99721 13.0122 8.01236 12.9833C8.02475 12.9558 8.04265 12.931 8.06468 12.9103C8.08809 12.8883 8.11425 12.8718 8.14454 12.8594C8.16795 12.8497 8.19136 12.8428 8.2189 12.8415C8.59755 12.8112 9.3411 12.7024 9.65366 12.3141C9.96348 11.9299 9.92079 11.1644 9.8726 10.7678C9.86847 10.7361 9.87122 10.7045 9.87948 10.6755C9.88637 10.6466 9.89876 10.6191 9.91528 10.5957C9.93043 10.5709 9.95108 10.5489 9.97587 10.5323C10.0062 10.5089 10.0447 10.4938 10.0846 10.4855C11.0457 10.3162 11.2922 9.7709 11.2922 9.27658C11.2922 6.79534 5.20341 4.03459 3.98069 4.953C3.65022 5.20085 3.5263 5.90447 3.48637 6.22529C3.47397 6.32305 3.40788 6.40429 3.31563 6.43459C2.98241 6.54336 2.21408 6.84078 1.98688 7.32133C1.7831 7.75232 1.97724 8.47383 2.11494 8.87314C2.16451 9.01772 2.07501 9.17194 1.92492 9.20361C1.64816 9.25868 1.16623 9.55472 0.995488 9.79569C0.622338 10.3217 1.15108 11.3709 1.19239 11.5031C1.21993 11.5912 1.19927 11.6876 1.13456 11.7537C1.02165 11.8707 0.850909 12.069 0.786193 12.2466C0.733869 12.3885 0.722854 12.6418 0.724231 12.8566Z" fill="#191825"/>
<path d="M7.03613 8.39941L9.87813 10.6755C9.88501 10.6466 9.89741 10.619 9.91393 10.5956C9.92908 10.5708 9.94973 10.5488 9.97451 10.5323L7.03613 8.39941Z" fill="#191825"/>
<path d="M5.11279 10.5381L8.01124 12.9849C8.02364 12.9574 8.04154 12.9326 8.06357 12.9119C8.08698 12.8899 8.11314 12.8734 8.14343 12.861L5.11279 10.5381Z" fill="#191825"/>
<path d="M50.992 36V4.76H62.652C66.084 4.76 68.944 5.464 71.232 6.872C73.5493 8.25067 75.2947 10.128 76.468 12.504C77.6413 14.8507 78.228 17.4613 78.228 20.336C78.228 23.504 77.5827 26.2613 76.292 28.608C75.0013 30.9547 73.1827 32.7733 70.836 34.064C68.5187 35.3547 65.7907 36 62.652 36H50.992ZM70.88 20.336C70.88 18.5173 70.5573 16.9187 69.912 15.54C69.2667 14.132 68.328 13.0467 67.096 12.284C65.864 11.492 64.3827 11.096 62.652 11.096H58.208V29.664H62.652C64.412 29.664 65.8933 29.268 67.096 28.476C68.328 27.6547 69.2667 26.54 69.912 25.132C70.5573 23.6947 70.88 22.096 70.88 20.336ZM82.4881 36V4.76H96.5681C98.0348 4.76 99.3841 5.068 100.616 5.684C101.877 6.27067 102.963 7.07733 103.872 8.104C104.781 9.10133 105.485 10.2307 105.984 11.492C106.512 12.7533 106.776 14.0293 106.776 15.32C106.776 16.6107 106.571 17.8427 106.16 19.016C105.749 20.16 105.163 21.2013 104.4 22.14C103.637 23.0493 102.728 23.7973 101.672 24.384L108.536 36H100.572L94.5881 25.924H89.7041V36H82.4881ZM89.7041 19.632H96.3041C96.8908 19.632 97.4041 19.456 97.8441 19.104C98.3134 18.7227 98.6948 18.2093 98.9881 17.564C99.2814 16.9187 99.4281 16.1707 99.4281 15.32C99.4281 14.4693 99.2521 13.736 98.9001 13.12C98.5774 12.4747 98.1668 11.976 97.6681 11.624C97.1694 11.272 96.6414 11.096 96.0841 11.096H89.7041V19.632ZM111.965 36V4.76H119.181V36H111.965ZM125.156 36V4.76H136.816C140.248 4.76 143.108 5.464 145.396 6.872C147.713 8.25067 149.459 10.128 150.632 12.504C151.805 14.8507 152.392 17.4613 152.392 20.336C152.392 23.504 151.747 26.2613 150.456 28.608C149.165 30.9547 147.347 32.7733 145 34.064C142.683 35.3547 139.955 36 136.816 36H125.156ZM145.044 20.336C145.044 18.5173 144.721 16.9187 144.076 15.54C143.431 14.132 142.492 13.0467 141.26 12.284C140.028 11.492 138.547 11.096 136.816 11.096H132.372V29.664H136.816C138.576 29.664 140.057 29.268 141.26 28.476C142.492 27.6547 143.431 26.54 144.076 25.132C144.721 23.6947 145.044 22.096 145.044 20.336ZM178.608 29.664V36H156.652V4.76H178.212V11.096H163.868V17.168H176.188V23.02H163.868V29.664H178.608Z" fill="white"/>
<path d="M2.04 56V46.77H5.316C6.31267 46.77 7.14467 46.978 7.812 47.394C8.47933 47.8013 8.97767 48.356 9.307 49.058C9.645 49.7513 9.814 50.5227 9.814 51.372C9.814 52.308 9.62767 53.1227 9.255 53.816C8.891 54.5093 8.371 55.0467 7.695 55.428C7.019 55.8093 6.226 56 5.316 56H2.04ZM8.332 51.372C8.332 50.722 8.21067 50.15 7.968 49.656C7.734 49.1533 7.39167 48.7633 6.941 48.486C6.499 48.2 5.95733 48.057 5.316 48.057H3.496V54.713H5.316C5.966 54.713 6.512 54.5657 6.954 54.271C7.40467 53.9763 7.747 53.5777 7.981 53.075C8.215 52.5723 8.332 52.0047 8.332 51.372ZM16.5457 56V46.77H20.5627C20.9787 46.77 21.36 46.8567 21.7067 47.03C22.0533 47.2033 22.3523 47.433 22.6037 47.719C22.8637 48.005 23.063 48.3257 23.2017 48.681C23.349 49.0363 23.4227 49.4003 23.4227 49.773C23.4227 50.1803 23.349 50.5703 23.2017 50.943C23.0543 51.3157 22.842 51.6363 22.5647 51.905C22.296 52.1737 21.9797 52.3687 21.6157 52.49L23.7867 56H22.1487L20.1467 52.789H18.0017V56H16.5457ZM18.0017 51.502H20.5497C20.8183 51.502 21.0567 51.424 21.2647 51.268C21.4727 51.112 21.6373 50.904 21.7587 50.644C21.88 50.3753 21.9407 50.085 21.9407 49.773C21.9407 49.4523 21.8713 49.1663 21.7327 48.915C21.594 48.655 21.412 48.447 21.1867 48.291C20.97 48.135 20.7317 48.057 20.4717 48.057H18.0017V51.502ZM30.3404 56V46.77H31.7964V56H30.3404ZM39.6674 46.77L42.4494 54.219L45.2184 46.77H46.7654L43.1384 56H41.7604L38.1204 46.77H39.6674ZM53.0929 56V46.77H54.5489V56H53.0929ZM63.2909 49.474V56H61.8349V46.77H63.0309L68.2569 53.439V46.783H69.7259V56H68.4519L63.2909 49.474ZM80.7707 56.065C80.1641 56.065 79.5964 55.9393 79.0677 55.688C78.5391 55.4367 78.0754 55.09 77.6767 54.648C77.2867 54.206 76.9791 53.7033 76.7537 53.14C76.5371 52.5767 76.4287 51.9787 76.4287 51.346C76.4287 50.7133 76.5371 50.1197 76.7537 49.565C76.9791 49.0103 77.2867 48.5163 77.6767 48.083C78.0754 47.6497 78.5391 47.3117 79.0677 47.069C79.6051 46.8263 80.1901 46.705 80.8227 46.705C81.6981 46.705 82.4347 46.8913 83.0327 47.264C83.6394 47.628 84.0944 48.1133 84.3977 48.72L83.2797 49.526C83.0371 49.0233 82.6904 48.6463 82.2397 48.395C81.7977 48.1437 81.3124 48.018 80.7837 48.018C80.3504 48.018 79.9561 48.109 79.6007 48.291C79.2454 48.473 78.9377 48.7243 78.6777 49.045C78.4264 49.357 78.2357 49.7167 78.1057 50.124C77.9757 50.5227 77.9107 50.943 77.9107 51.385C77.9107 51.853 77.9844 52.2907 78.1317 52.698C78.2791 53.1053 78.4871 53.465 78.7557 53.777C79.0244 54.0803 79.3407 54.3187 79.7047 54.492C80.0687 54.6653 80.4631 54.752 80.8877 54.752C81.3904 54.752 81.8671 54.6263 82.3177 54.375C82.7771 54.115 83.2061 53.7293 83.6047 53.218V54.7C82.7987 55.61 81.8541 56.065 80.7707 56.065ZM83.4617 52.412H81.5247V51.333H84.6837V56H83.4617V52.412ZM105.416 48.941C105.33 48.8457 105.204 48.746 105.039 48.642C104.875 48.5293 104.68 48.4253 104.454 48.33C104.229 48.2347 103.986 48.1567 103.726 48.096C103.466 48.0353 103.198 48.005 102.92 48.005C102.314 48.005 101.863 48.1177 101.568 48.343C101.274 48.5683 101.126 48.8803 101.126 49.279C101.126 49.5737 101.209 49.8077 101.373 49.981C101.538 50.1457 101.789 50.2843 102.127 50.397C102.465 50.5097 102.89 50.631 103.401 50.761C104.025 50.9083 104.567 51.086 105.026 51.294C105.486 51.4933 105.837 51.762 106.079 52.1C106.322 52.438 106.443 52.8843 106.443 53.439C106.443 53.907 106.357 54.31 106.183 54.648C106.01 54.986 105.767 55.2633 105.455 55.48C105.143 55.688 104.784 55.844 104.376 55.948C103.969 56.0433 103.531 56.091 103.063 56.091C102.604 56.091 102.145 56.0433 101.685 55.948C101.235 55.8527 100.801 55.714 100.385 55.532C99.9781 55.3413 99.6011 55.1117 99.2544 54.843L99.9174 53.595C100.03 53.7077 100.19 53.8333 100.398 53.972C100.615 54.102 100.862 54.2277 101.139 54.349C101.425 54.4703 101.733 54.5743 102.062 54.661C102.4 54.739 102.743 54.778 103.089 54.778C103.67 54.778 104.112 54.6783 104.415 54.479C104.727 54.271 104.883 53.9763 104.883 53.595C104.883 53.283 104.784 53.036 104.584 52.854C104.385 52.6633 104.095 52.503 103.713 52.373C103.332 52.243 102.877 52.113 102.348 51.983C101.742 51.8183 101.235 51.6407 100.827 51.45C100.42 51.2507 100.112 50.9993 99.9044 50.696C99.7051 50.384 99.6054 49.9897 99.6054 49.513C99.6054 48.9063 99.7527 48.395 100.047 47.979C100.342 47.5543 100.741 47.238 101.243 47.03C101.755 46.8133 102.327 46.705 102.959 46.705C103.375 46.705 103.77 46.7527 104.142 46.848C104.515 46.9347 104.862 47.056 105.182 47.212C105.512 47.368 105.811 47.5457 106.079 47.745L105.416 48.941ZM112.519 51.32C112.519 50.7567 112.618 50.2063 112.818 49.669C113.017 49.123 113.307 48.629 113.689 48.187C114.079 47.7363 114.551 47.381 115.106 47.121C115.66 46.8523 116.289 46.718 116.991 46.718C117.823 46.718 118.542 46.9087 119.149 47.29C119.755 47.6627 120.206 48.1437 120.501 48.733L119.357 49.5C119.183 49.1273 118.962 48.8327 118.694 48.616C118.434 48.3993 118.148 48.2477 117.836 48.161C117.532 48.0743 117.233 48.031 116.939 48.031C116.453 48.031 116.029 48.1307 115.665 48.33C115.301 48.5207 114.993 48.7763 114.742 49.097C114.499 49.4177 114.313 49.7773 114.183 50.176C114.061 50.5747 114.001 50.9733 114.001 51.372C114.001 51.814 114.074 52.243 114.222 52.659C114.369 53.0663 114.573 53.4303 114.833 53.751C115.101 54.063 115.418 54.31 115.782 54.492C116.146 54.674 116.544 54.765 116.978 54.765C117.272 54.765 117.58 54.713 117.901 54.609C118.221 54.505 118.516 54.3447 118.785 54.128C119.062 53.9027 119.279 53.608 119.435 53.244L120.644 53.933C120.453 54.3923 120.154 54.7823 119.747 55.103C119.348 55.4237 118.897 55.6663 118.395 55.831C117.901 55.9957 117.411 56.078 116.926 56.078C116.276 56.078 115.682 55.9437 115.145 55.675C114.607 55.3977 114.144 55.0337 113.754 54.583C113.364 54.1237 113.06 53.6123 112.844 53.049C112.627 52.477 112.519 51.9007 112.519 51.32ZM134.769 46.77V56H133.3V51.931H128.646V56H127.19V46.77H128.646V50.631H133.3V46.77H134.769ZM145.887 56.065C145.219 56.065 144.617 55.935 144.08 55.675C143.542 55.415 143.079 55.064 142.689 54.622C142.299 54.1713 141.995 53.6687 141.779 53.114C141.571 52.5507 141.467 51.9743 141.467 51.385C141.467 50.7697 141.579 50.1847 141.805 49.63C142.03 49.0667 142.342 48.5683 142.741 48.135C143.139 47.693 143.607 47.3463 144.145 47.095C144.691 46.835 145.28 46.705 145.913 46.705C146.571 46.705 147.169 46.8393 147.707 47.108C148.253 47.3767 148.716 47.7363 149.098 48.187C149.488 48.6377 149.787 49.1403 149.995 49.695C150.211 50.2497 150.32 50.8173 150.32 51.398C150.32 52.0133 150.207 52.6027 149.982 53.166C149.765 53.7207 149.457 54.219 149.059 54.661C148.66 55.0943 148.188 55.4367 147.642 55.688C147.104 55.9393 146.519 56.065 145.887 56.065ZM142.949 51.385C142.949 51.8183 143.018 52.2387 143.157 52.646C143.295 53.0533 143.49 53.4173 143.742 53.738C144.002 54.05 144.314 54.297 144.678 54.479C145.042 54.661 145.449 54.752 145.9 54.752C146.368 54.752 146.784 54.6567 147.148 54.466C147.512 54.2753 147.815 54.0197 148.058 53.699C148.309 53.3697 148.5 53.0057 148.63 52.607C148.76 52.1997 148.825 51.7923 148.825 51.385C148.825 50.9517 148.755 50.5357 148.617 50.137C148.487 49.7297 148.292 49.37 148.032 49.058C147.772 48.7373 147.46 48.486 147.096 48.304C146.74 48.122 146.342 48.031 145.9 48.031C145.432 48.031 145.016 48.1263 144.652 48.317C144.288 48.5077 143.98 48.7633 143.729 49.084C143.477 49.4047 143.282 49.7643 143.144 50.163C143.014 50.5617 142.949 50.969 142.949 51.385ZM160.862 56.065C160.195 56.065 159.592 55.935 159.055 55.675C158.518 55.415 158.054 55.064 157.664 54.622C157.274 54.1713 156.971 53.6687 156.754 53.114C156.546 52.5507 156.442 51.9743 156.442 51.385C156.442 50.7697 156.555 50.1847 156.78 49.63C157.005 49.0667 157.317 48.5683 157.716 48.135C158.115 47.693 158.583 47.3463 159.12 47.095C159.666 46.835 160.255 46.705 160.888 46.705C161.547 46.705 162.145 46.8393 162.682 47.108C163.228 47.3767 163.692 47.7363 164.073 48.187C164.463 48.6377 164.762 49.1403 164.97 49.695C165.187 50.2497 165.295 50.8173 165.295 51.398C165.295 52.0133 165.182 52.6027 164.957 53.166C164.74 53.7207 164.433 54.219 164.034 54.661C163.635 55.0943 163.163 55.4367 162.617 55.688C162.08 55.9393 161.495 56.065 160.862 56.065ZM157.924 51.385C157.924 51.8183 157.993 52.2387 158.132 52.646C158.271 53.0533 158.466 53.4173 158.717 53.738C158.977 54.05 159.289 54.297 159.653 54.479C160.017 54.661 160.424 54.752 160.875 54.752C161.343 54.752 161.759 54.6567 162.123 54.466C162.487 54.2753 162.79 54.0197 163.033 53.699C163.284 53.3697 163.475 53.0057 163.605 52.607C163.735 52.1997 163.8 51.7923 163.8 51.385C163.8 50.9517 163.731 50.5357 163.592 50.137C163.462 49.7297 163.267 49.37 163.007 49.058C162.747 48.7373 162.435 48.486 162.071 48.304C161.716 48.122 161.317 48.031 160.875 48.031C160.407 48.031 159.991 48.1263 159.627 48.317C159.263 48.5077 158.955 48.7633 158.704 49.084C158.453 49.4047 158.258 49.7643 158.119 50.163C157.989 50.5617 157.924 50.969 157.924 51.385ZM172.002 56V46.77H173.458V54.713H178.411V56H172.002Z" fill="white"/>
</svg>
