<svg width="180" height="57" viewBox="0 0 180 57" fill="none" xmlns="http://www.w3.org/2000/svg">
<path d="M12.8481 5.69336C12.8481 5.69336 13.2763 6.36255 13.0739 6.72193C12.7682 7.26307 12.603 8.98699 11.8374 9.45653C10.7372 9.74431 9.45117 7.8882 9.45117 7.8882L11.0801 6.43553L12.8481 5.69336Z" fill="#0073E6"/>
<path d="M26.8295 5.69336C26.8295 5.69336 26.4012 6.36255 26.6037 6.72193C26.9093 7.26307 27.0746 8.98699 27.8401 9.45653C28.9403 9.74431 30.2264 7.8882 30.2264 7.8882L28.5975 6.43553L26.8295 5.69336Z" fill="#0073E6"/>
<path d="M19.9999 1.87109C9.95792 1.87109 1.81885 10.0115 1.81885 20.0522C1.81885 30.0928 9.9593 38.2332 19.9999 38.2332C30.0419 38.2332 38.181 30.0928 38.181 20.0522C38.181 10.0102 30.0419 1.87109 19.9999 1.87109ZM17.5641 33.3768C16.9954 34.4109 15.3624 34.5127 14.1865 33.8835C10.4385 31.8773 7.49183 29.4814 6.33795 25.9358C6.00198 24.9017 6.14381 23.6804 6.9562 23.1503C7.37066 22.8804 7.792 22.6711 8.21885 22.5183C13.3562 20.6663 19.0732 26.8887 18.1245 31.8167C18.0199 32.3551 17.8367 32.8797 17.5641 33.3768ZM21.8753 31.8153C20.928 26.8873 26.645 20.6663 31.781 22.5169C32.2078 22.6697 32.6292 22.8776 33.0436 23.1489C33.8574 23.679 33.9992 24.9017 33.6619 25.9344C32.508 29.48 29.5614 31.8759 25.8133 33.8821C24.6374 34.5114 23.0044 34.4095 22.4357 33.3754C22.1631 32.8797 21.9799 32.3551 21.8753 31.8153ZM19.9999 12.9678C18.1397 12.9568 16.676 13.615 15.5855 14.1905C12.53 15.8029 10.9989 18.247 7.63503 18.4962C7.45189 18.51 7.26325 18.5169 7.06773 18.5169C2.68494 18.5169 6.82263 11.1572 9.31076 8.66765C12.0633 5.91516 16.0316 4.5396 20.0013 4.5396C23.9696 4.5396 27.9393 5.91653 30.6918 8.66765C33.18 11.1572 37.319 18.5169 32.9349 18.5169C32.7393 18.5169 32.5507 18.51 32.3676 18.4962C29.0037 18.2484 27.4725 15.8029 24.4171 14.1905C23.3238 13.615 21.8602 12.9568 19.9999 12.9678Z" fill="white"/>
<path d="M20 40.0508C14.6575 40.0508 9.63442 37.9702 5.85749 34.1933C2.08055 30.4164 0 25.3933 0 20.0508C0 14.7083 2.08055 9.6852 5.85749 5.90827C9.63442 2.13133 14.6575 0.0507812 20 0.0507812C25.3425 0.0507812 30.3656 2.13133 34.1425 5.90827C37.9208 9.6852 40.0014 14.7083 40.0014 20.0508C40.0014 25.3933 37.9208 30.4164 34.1439 34.1933C30.3656 37.9702 25.3425 40.0508 20 40.0508ZM20 3.68865C10.9783 3.68865 3.63924 11.0277 3.63924 20.0494C3.63924 29.0711 10.9783 36.4102 20 36.4102C29.0217 36.4102 36.3608 29.0711 36.3608 20.0494C36.3621 11.0291 29.0217 3.68865 20 3.68865Z" fill="white"/>
<path d="M19.9998 38.9596C9.57364 38.9596 1.09033 30.4776 1.09033 20.0501C1.09033 9.62393 9.57226 1.14062 19.9998 1.14062C30.426 1.14062 38.9093 9.62255 38.9093 20.0501C38.9093 30.4776 30.426 38.9596 19.9998 38.9596ZM19.9998 2.59742C10.3764 2.59742 2.54713 10.4267 2.54713 20.0501C2.54713 29.6735 10.3764 37.5028 19.9998 37.5028C29.6232 37.5028 37.4525 29.6735 37.4525 20.0501C37.4525 10.4267 29.6232 2.59742 19.9998 2.59742Z" fill="white"/>
<path d="M19.9998 32.4514C19.4201 32.4707 18.7647 32.3206 18.1244 31.8125C19.0717 26.8844 13.3547 20.6634 8.2187 22.514C7.13092 20.9319 6.88583 20.0039 7.63488 18.4934C10.9987 18.2455 12.5299 15.8001 15.5853 14.1877C16.6758 13.6121 18.1395 12.954 19.9998 12.965C21.86 12.954 23.3237 13.6121 24.4142 14.1877C27.4697 15.8001 29.0008 18.2442 32.3647 18.4934C33.1137 20.0039 32.8672 20.9319 31.7808 22.514C26.6435 20.6621 20.9264 26.8844 21.8752 31.8125C21.2349 32.3206 20.5795 32.4707 19.9998 32.4514Z" fill="white"/>
<path d="M22.8333 18.1925C23.1994 16.6271 22.2272 15.0614 20.6618 14.6954C19.0965 14.3293 17.5308 15.3015 17.1648 16.8669C16.7987 18.4322 17.7709 19.9979 19.3362 20.364C20.9016 20.73 22.4673 19.7578 22.8333 18.1925Z" fill="white"/>
<path d="M19.9996 23.079C19.9969 23.079 19.9928 23.079 19.99 23.079C18.7976 23.079 17.8296 22.7664 17.8296 22.3823C17.8296 21.9981 18.7962 21.6855 19.99 21.6855C19.9928 21.6855 19.9969 21.6855 19.9996 21.6855C20.0024 21.6855 20.0065 21.6855 20.0093 21.6855C21.2017 21.6855 22.1697 21.9981 22.1697 22.3823C22.1697 22.7664 21.2031 23.079 20.0093 23.079C20.0065 23.079 20.0024 23.079 19.9996 23.079Z" fill="white"/>
<path d="M38.9536 12.9084C38.9523 13.1383 38.8531 13.3655 38.6659 13.4991C36.1254 15.3084 37.0521 14.6929 34.3464 16.1428C34.1578 16.2447 33.9251 16.2323 33.7295 16.1442C33.5863 16.0781 33.4349 15.9886 33.3495 15.8743C33.2215 15.698 33.1733 15.2726 33.1554 15.0206C33.154 14.9972 33.1485 14.9765 33.1416 14.9545C33.132 14.927 33.1182 14.8994 33.0989 14.8774C33.0796 14.854 33.0562 14.8333 33.0287 14.8182C33.0053 14.8044 32.9805 14.7948 32.953 14.7906C32.6817 14.7356 32.1956 14.6048 31.9753 14.3376C31.7536 14.0678 31.7013 13.4674 31.6903 13.1356C31.6889 13.0998 31.6807 13.064 31.6641 13.0351C31.6517 13.0075 31.6338 12.9827 31.6118 12.9621C31.5884 12.94 31.5622 12.9235 31.532 12.9111C31.5085 12.9015 31.4851 12.8946 31.4576 12.8932C31.0789 12.8629 30.3354 12.7542 30.0228 12.3659C29.713 11.9817 29.7557 11.2161 29.8039 10.8196C29.808 10.7879 29.8053 10.7562 29.797 10.7273C29.7901 10.6984 29.7777 10.6709 29.7612 10.6474C29.7461 10.6227 29.7254 10.6006 29.7006 10.5841C29.6703 10.5607 29.6318 10.5456 29.5918 10.5373C28.6307 10.3679 28.3843 9.82266 28.3843 9.32834C28.3843 6.8471 34.4731 4.08634 35.6958 5.00476C36.0263 5.25261 36.1502 5.95622 36.1901 6.27705C36.2025 6.37481 36.2686 6.45605 36.3609 6.48634C36.6941 6.59512 37.4624 6.89254 37.6896 7.37309C37.8934 7.80407 37.6993 8.52559 37.5629 8.9249C37.5134 9.06948 37.6029 9.22369 37.753 9.25536C38.0297 9.31044 38.5116 9.60648 38.6824 9.84745C39.0555 10.3734 38.5268 11.4227 38.4855 11.5548C38.4579 11.643 38.4786 11.7394 38.5433 11.8054C38.6562 11.9225 38.827 12.1208 38.8917 12.2984C38.944 12.4402 38.9536 12.6936 38.9536 12.9084Z" fill="#0073E6"/>
<path d="M32.6415 8.45117L29.7995 10.7272C29.7926 10.6983 29.7802 10.6708 29.7637 10.6474C29.7486 10.6226 29.7279 10.6006 29.7031 10.584L32.6415 8.45117Z" fill="#0073E6"/>
<path d="M34.5638 10.5898L31.6654 13.0367C31.653 13.0091 31.6351 12.9843 31.6131 12.9637C31.5897 12.9417 31.5635 12.9251 31.5332 12.9127L34.5638 10.5898Z" fill="#0073E6"/>
<path d="M36.0458 12.8066L33.1432 14.956C33.1335 14.9285 33.1198 14.901 33.1005 14.8789C33.0812 14.8555 33.0578 14.8349 33.0303 14.8197L36.0458 12.8066Z" fill="#0073E6"/>
<path d="M0.724231 12.9084C0.725608 13.1383 0.824747 13.3655 1.01201 13.4991C3.55246 15.3084 2.62578 14.6929 5.33146 16.1428C5.5201 16.2447 5.7528 16.2323 5.94833 16.1442C6.09153 16.0781 6.24299 15.9886 6.32836 15.8743C6.45642 15.698 6.50461 15.2726 6.52251 15.0206C6.52389 14.9972 6.5294 14.9765 6.53628 14.9545C6.54592 14.927 6.55969 14.8994 6.57896 14.8774C6.59824 14.854 6.62165 14.8333 6.64919 14.8182C6.6726 14.8044 6.69738 14.7948 6.72492 14.7906C6.99618 14.7356 7.48224 14.6048 7.70255 14.3376C7.92423 14.0678 7.97656 13.4674 7.98757 13.1356C7.98895 13.0998 7.99721 13.064 8.01236 13.0351C8.02475 13.0075 8.04265 12.9827 8.06468 12.9621C8.08809 12.94 8.11425 12.9235 8.14454 12.9111C8.16795 12.9015 8.19136 12.8946 8.2189 12.8932C8.59755 12.8629 9.3411 12.7542 9.65366 12.3659C9.96348 11.9817 9.92079 11.2161 9.8726 10.8196C9.86847 10.7879 9.87122 10.7562 9.87948 10.7273C9.88637 10.6984 9.89876 10.6709 9.91528 10.6474C9.93043 10.6227 9.95108 10.6006 9.97587 10.5841C10.0062 10.5607 10.0447 10.5456 10.0846 10.5373C11.0457 10.3679 11.2922 9.82266 11.2922 9.32834C11.2922 6.8471 5.20341 4.08634 3.98069 5.00476C3.65022 5.25261 3.5263 5.95622 3.48637 6.27705C3.47397 6.37481 3.40788 6.45605 3.31563 6.48634C2.98241 6.59512 2.21408 6.89254 1.98688 7.37309C1.7831 7.80407 1.97724 8.52559 2.11494 8.9249C2.16451 9.06948 2.07501 9.22369 1.92492 9.25536C1.64816 9.31044 1.16623 9.60648 0.995488 9.84745C0.622338 10.3734 1.15108 11.4227 1.19239 11.5548C1.21993 11.643 1.19927 11.7394 1.13456 11.8054C1.02165 11.9225 0.850909 12.1208 0.786193 12.2984C0.733869 12.4402 0.722854 12.6936 0.724231 12.9084Z" fill="#0073E6"/>
<path d="M7.03613 8.45117L9.87813 10.7272C9.88501 10.6983 9.89741 10.6708 9.91393 10.6474C9.92908 10.6226 9.94973 10.6006 9.97451 10.584L7.03613 8.45117Z" fill="#0073E6"/>
<path d="M5.11279 10.5898L8.01124 13.0367C8.02364 13.0091 8.04154 12.9843 8.06357 12.9637C8.08698 12.9417 8.11314 12.9251 8.14343 12.9127L5.11279 10.5898Z" fill="#0073E6"/>
<path d="M51.256 36.0508V4.81078H62.608C66.0107 4.81078 68.856 5.51478 71.144 6.92278C73.432 8.30145 75.148 10.1788 76.292 12.5548C77.436 14.9014 78.008 17.5121 78.008 20.3868C78.008 23.5548 77.3773 26.3121 76.116 28.6588C74.8547 31.0054 73.0653 32.8241 70.748 34.1148C68.46 35.4054 65.7467 36.0508 62.608 36.0508H51.256ZM71.892 20.3868C71.892 18.3628 71.5253 16.5881 70.792 15.0628C70.0587 13.5081 69.0027 12.3054 67.624 11.4548C66.2453 10.5748 64.5733 10.1348 62.608 10.1348H57.328V30.7268H62.608C64.6027 30.7268 66.2893 30.2868 67.668 29.4068C69.0467 28.4974 70.088 27.2654 70.792 25.7108C71.5253 24.1268 71.892 22.3521 71.892 20.3868ZM82.7521 36.0508V4.81078H96.5681C98.0054 4.81078 99.3254 5.10411 100.528 5.69078C101.76 6.27745 102.816 7.06945 103.696 8.06678C104.605 9.06411 105.295 10.1788 105.764 11.4108C106.263 12.6428 106.512 13.9041 106.512 15.1948C106.512 16.5148 106.277 17.7908 105.808 19.0228C105.368 20.2254 104.723 21.2814 103.872 22.1908C103.021 23.1001 102.024 23.8041 100.88 24.3028L108.008 36.0508H101.32L94.8961 25.5788H88.8241V36.0508H82.7521ZM88.8241 20.2548H96.4361C97.1988 20.2548 97.8734 20.0348 98.4601 19.5948C99.0468 19.1254 99.5161 18.5094 99.8681 17.7468C100.22 16.9841 100.396 16.1334 100.396 15.1948C100.396 14.1974 100.191 13.3321 99.7801 12.5988C99.3694 11.8361 98.8414 11.2348 98.1961 10.7948C97.5801 10.3548 96.9054 10.1348 96.1721 10.1348H88.8241V20.2548ZM112.014 36.0508V4.81078H118.086V36.0508H112.014ZM124.604 36.0508V4.81078H135.956C139.358 4.81078 142.204 5.51478 144.492 6.92278C146.78 8.30145 148.496 10.1788 149.64 12.5548C150.784 14.9014 151.356 17.5121 151.356 20.3868C151.356 23.5548 150.725 26.3121 149.464 28.6588C148.202 31.0054 146.413 32.8241 144.096 34.1148C141.808 35.4054 139.094 36.0508 135.956 36.0508H124.604ZM145.24 20.3868C145.24 18.3628 144.873 16.5881 144.14 15.0628C143.406 13.5081 142.35 12.3054 140.972 11.4548C139.593 10.5748 137.921 10.1348 135.956 10.1348H130.676V30.7268H135.956C137.95 30.7268 139.637 30.2868 141.016 29.4068C142.394 28.4974 143.436 27.2654 144.14 25.7108C144.873 24.1268 145.24 22.3521 145.24 20.3868ZM177.792 30.7268V36.0508H156.1V4.81078H177.396V10.1348H162.172V17.6588H175.328V22.5868H162.172V30.7268H177.792Z" fill="white"/>
<path d="M1.962 56.0508V46.8208H5.316C6.32133 46.8208 7.162 47.0288 7.838 47.4448C8.514 47.8521 9.021 48.4068 9.359 49.1088C9.697 49.8021 9.866 50.5734 9.866 51.4228C9.866 52.3588 9.67967 53.1734 9.307 53.8668C8.93433 54.5601 8.40567 55.0974 7.721 55.4788C7.045 55.8601 6.24333 56.0508 5.316 56.0508H1.962ZM8.059 51.4228C8.059 50.8248 7.95067 50.3004 7.734 49.8498C7.51733 49.3904 7.20533 49.0351 6.798 48.7838C6.39067 48.5238 5.89667 48.3938 5.316 48.3938H3.756V54.4778H5.316C5.90533 54.4778 6.40367 54.3478 6.811 54.0878C7.21833 53.8191 7.526 53.4551 7.734 52.9958C7.95067 52.5278 8.059 52.0034 8.059 51.4228ZM16.4677 56.0508V46.8208H20.5497C20.9743 46.8208 21.3643 46.9074 21.7197 47.0808C22.0837 47.2541 22.3957 47.4881 22.6557 47.7828C22.9243 48.0774 23.128 48.4068 23.2667 48.7708C23.414 49.1348 23.4877 49.5074 23.4877 49.8888C23.4877 50.2788 23.4183 50.6558 23.2797 51.0198C23.1497 51.3751 22.959 51.6871 22.7077 51.9558C22.4563 52.2244 22.1617 52.4324 21.8237 52.5798L23.9297 56.0508H21.9537L20.0557 52.9568H18.2617V56.0508H16.4677ZM18.2617 51.3838H20.5107C20.736 51.3838 20.9353 51.3188 21.1087 51.1888C21.282 51.0501 21.4207 50.8681 21.5247 50.6428C21.6287 50.4174 21.6807 50.1661 21.6807 49.8888C21.6807 49.5941 21.62 49.3384 21.4987 49.1218C21.3773 48.8964 21.2213 48.7188 21.0307 48.5888C20.8487 48.4588 20.6493 48.3938 20.4327 48.3938H18.2617V51.3838ZM30.3132 56.0508V46.8208H32.1072V56.0508H30.3132ZM40.1819 46.8208L42.6779 53.9188L45.1479 46.8208H47.0329L43.5359 56.0508H41.8069L38.2969 46.8208H40.1819ZM53.2181 56.0508V46.8208H55.0121V56.0508H53.2181ZM63.9318 50.1228V56.0508H62.1378V46.8208H63.5678L68.3388 52.9048V46.8338H70.1328V56.0508H68.6378L63.9318 50.1228ZM81.0878 56.1158C80.4898 56.1158 79.9222 55.9944 79.3848 55.7518C78.8562 55.5091 78.3882 55.1754 77.9808 54.7508C77.5822 54.3174 77.2702 53.8148 77.0448 53.2428C76.8195 52.6708 76.7068 52.0511 76.7068 51.3838C76.7068 50.7511 76.8195 50.1574 77.0448 49.6028C77.2702 49.0394 77.5865 48.5454 77.9938 48.1208C78.4012 47.6961 78.8778 47.3624 79.4238 47.1198C79.9698 46.8771 80.5635 46.7558 81.2048 46.7558C82.0715 46.7558 82.8125 46.9421 83.4278 47.3148C84.0518 47.6788 84.5198 48.1641 84.8318 48.7708L83.4928 49.7588C83.2588 49.2994 82.9295 48.9484 82.5048 48.7058C82.0888 48.4631 81.6338 48.3418 81.1398 48.3418C80.7498 48.3418 80.3945 48.4241 80.0738 48.5888C79.7532 48.7534 79.4758 48.9788 79.2418 49.2648C79.0078 49.5508 78.8258 49.8801 78.6958 50.2528C78.5745 50.6254 78.5138 51.0198 78.5138 51.4358C78.5138 51.8778 78.5788 52.2851 78.7088 52.6578C78.8475 53.0304 79.0382 53.3554 79.2808 53.6328C79.5322 53.9101 79.8225 54.1311 80.1518 54.2958C80.4812 54.4518 80.8452 54.5298 81.2438 54.5298C81.7118 54.5298 82.1582 54.4084 82.5828 54.1658C83.0162 53.9231 83.4192 53.5678 83.7918 53.0998V54.8678C83.0205 55.6998 82.1192 56.1158 81.0878 56.1158ZM83.6618 52.6188H81.8028V51.3058H85.1438V56.0508H83.6618V52.6188ZM105.695 49.2388C105.634 49.1781 105.521 49.0958 105.357 48.9918C105.201 48.8878 105.006 48.7881 104.772 48.6928C104.546 48.5974 104.299 48.5151 104.031 48.4458C103.762 48.3678 103.489 48.3288 103.212 48.3288C102.726 48.3288 102.358 48.4198 102.107 48.6018C101.864 48.7838 101.743 49.0394 101.743 49.3688C101.743 49.6201 101.821 49.8194 101.977 49.9668C102.133 50.1141 102.367 50.2398 102.679 50.3438C102.991 50.4478 103.381 50.5604 103.849 50.6818C104.455 50.8291 104.98 51.0111 105.422 51.2278C105.872 51.4358 106.215 51.7131 106.449 52.0598C106.691 52.3978 106.813 52.8484 106.813 53.4118C106.813 53.9058 106.722 54.3304 106.54 54.6858C106.358 55.0324 106.106 55.3141 105.786 55.5308C105.465 55.7474 105.101 55.9078 104.694 56.0118C104.286 56.1071 103.853 56.1548 103.394 56.1548C102.934 56.1548 102.475 56.1071 102.016 56.0118C101.556 55.9164 101.114 55.7821 100.69 55.6088C100.265 55.4268 99.8751 55.2101 99.5198 54.9588L100.313 53.4118C100.391 53.4898 100.529 53.5938 100.729 53.7238C100.928 53.8451 101.171 53.9708 101.457 54.1008C101.743 54.2221 102.055 54.3261 102.393 54.4128C102.731 54.4994 103.073 54.5428 103.42 54.5428C103.905 54.5428 104.273 54.4604 104.525 54.2958C104.776 54.1311 104.902 53.8971 104.902 53.5938C104.902 53.3164 104.802 53.0998 104.603 52.9438C104.403 52.7878 104.126 52.6534 103.771 52.5408C103.415 52.4194 102.995 52.2894 102.51 52.1508C101.929 51.9861 101.444 51.8041 101.054 51.6048C100.664 51.3968 100.373 51.1368 100.183 50.8248C99.9921 50.5128 99.8968 50.1228 99.8968 49.6548C99.8968 49.0221 100.044 48.4934 100.339 48.0688C100.642 47.6354 101.049 47.3104 101.561 47.0938C102.072 46.8684 102.64 46.7558 103.264 46.7558C103.697 46.7558 104.104 46.8034 104.486 46.8988C104.876 46.9941 105.24 47.1198 105.578 47.2758C105.916 47.4318 106.219 47.6008 106.488 47.7828L105.695 49.2388ZM112.809 51.3708C112.809 50.8074 112.909 50.2571 113.108 49.7198C113.316 49.1738 113.615 48.6798 114.005 48.2378C114.395 47.7871 114.872 47.4318 115.435 47.1718C115.999 46.9031 116.64 46.7688 117.359 46.7688C118.209 46.7688 118.941 46.9551 119.556 47.3278C120.18 47.7004 120.644 48.1858 120.947 48.7838L119.569 49.7328C119.413 49.3861 119.21 49.1131 118.958 48.9138C118.707 48.7058 118.438 48.5628 118.152 48.4848C117.866 48.3981 117.585 48.3548 117.307 48.3548C116.857 48.3548 116.462 48.4458 116.124 48.6278C115.795 48.8098 115.518 49.0481 115.292 49.3428C115.067 49.6374 114.898 49.9668 114.785 50.3308C114.681 50.6948 114.629 51.0588 114.629 51.4228C114.629 51.8301 114.694 52.2244 114.824 52.6058C114.954 52.9784 115.136 53.3121 115.37 53.6068C115.613 53.8928 115.899 54.1224 116.228 54.2958C116.566 54.4604 116.935 54.5428 117.333 54.5428C117.619 54.5428 117.91 54.4951 118.204 54.3998C118.499 54.3044 118.772 54.1528 119.023 53.9448C119.275 53.7368 119.47 53.4681 119.608 53.1388L121.077 53.9838C120.895 54.4431 120.596 54.8331 120.18 55.1538C119.773 55.4744 119.314 55.7171 118.802 55.8818C118.291 56.0464 117.784 56.1288 117.281 56.1288C116.623 56.1288 116.02 55.9944 115.474 55.7258C114.928 55.4484 114.456 55.0844 114.057 54.6338C113.667 54.1744 113.36 53.6631 113.134 53.0998C112.918 52.5278 112.809 51.9514 112.809 51.3708ZM135.242 46.8208V56.0508H133.461V52.1118H129.275V56.0508H127.481V46.8208H129.275V50.5518H133.461V46.8208H135.242ZM146.306 56.1158C145.63 56.1158 145.015 55.9858 144.46 55.7258C143.914 55.4658 143.442 55.1148 143.043 54.6728C142.653 54.2221 142.35 53.7194 142.133 53.1648C141.916 52.6014 141.808 52.0251 141.808 51.4358C141.808 50.8204 141.921 50.2354 142.146 49.6808C142.38 49.1174 142.696 48.6191 143.095 48.1858C143.502 47.7438 143.979 47.3971 144.525 47.1458C145.08 46.8858 145.686 46.7558 146.345 46.7558C147.012 46.7558 147.619 46.8901 148.165 47.1588C148.72 47.4274 149.192 47.7871 149.582 48.2378C149.972 48.6884 150.275 49.1911 150.492 49.7458C150.709 50.3004 150.817 50.8724 150.817 51.4618C150.817 52.0684 150.704 52.6534 150.479 53.2168C150.254 53.7714 149.937 54.2698 149.53 54.7118C149.131 55.1451 148.655 55.4874 148.1 55.7388C147.554 55.9901 146.956 56.1158 146.306 56.1158ZM143.628 51.4358C143.628 51.8344 143.689 52.2201 143.81 52.5928C143.931 52.9654 144.105 53.2991 144.33 53.5938C144.564 53.8798 144.846 54.1094 145.175 54.2828C145.513 54.4474 145.894 54.5298 146.319 54.5298C146.752 54.5298 147.138 54.4431 147.476 54.2698C147.814 54.0878 148.096 53.8494 148.321 53.5548C148.546 53.2514 148.715 52.9178 148.828 52.5538C148.949 52.1811 149.01 51.8084 149.01 51.4358C149.01 51.0371 148.945 50.6558 148.815 50.2918C148.694 49.9191 148.516 49.5898 148.282 49.3038C148.057 49.0091 147.775 48.7794 147.437 48.6148C147.108 48.4414 146.735 48.3548 146.319 48.3548C145.877 48.3548 145.487 48.4458 145.149 48.6278C144.82 48.8011 144.542 49.0351 144.317 49.3298C144.092 49.6244 143.918 49.9538 143.797 50.3178C143.684 50.6818 143.628 51.0544 143.628 51.4358ZM161.332 56.1158C160.656 56.1158 160.041 55.9858 159.486 55.7258C158.94 55.4658 158.468 55.1148 158.069 54.6728C157.679 54.2221 157.376 53.7194 157.159 53.1648C156.943 52.6014 156.834 52.0251 156.834 51.4358C156.834 50.8204 156.947 50.2354 157.172 49.6808C157.406 49.1174 157.723 48.6191 158.121 48.1858C158.529 47.7438 159.005 47.3971 159.551 47.1458C160.106 46.8858 160.713 46.7558 161.371 46.7558C162.039 46.7558 162.645 46.8901 163.191 47.1588C163.746 47.4274 164.218 47.7871 164.608 48.2378C164.998 48.6884 165.302 49.1911 165.518 49.7458C165.735 50.3004 165.843 50.8724 165.843 51.4618C165.843 52.0684 165.731 52.6534 165.505 53.2168C165.28 53.7714 164.964 54.2698 164.556 54.7118C164.158 55.1451 163.681 55.4874 163.126 55.7388C162.58 55.9901 161.982 56.1158 161.332 56.1158ZM158.654 51.4358C158.654 51.8344 158.715 52.2201 158.836 52.5928C158.958 52.9654 159.131 53.2991 159.356 53.5938C159.59 53.8798 159.872 54.1094 160.201 54.2828C160.539 54.4474 160.921 54.5298 161.345 54.5298C161.779 54.5298 162.164 54.4431 162.502 54.2698C162.84 54.0878 163.122 53.8494 163.347 53.5548C163.573 53.2514 163.742 52.9178 163.854 52.5538C163.976 52.1811 164.036 51.8084 164.036 51.4358C164.036 51.0371 163.971 50.6558 163.841 50.2918C163.72 49.9191 163.542 49.5898 163.308 49.3038C163.083 49.0091 162.801 48.7794 162.463 48.6148C162.134 48.4414 161.761 48.3548 161.345 48.3548C160.903 48.3548 160.513 48.4458 160.175 48.6278C159.846 48.8011 159.569 49.0351 159.343 49.3298C159.118 49.6244 158.945 49.9538 158.823 50.3178C158.711 50.6818 158.654 51.0544 158.654 51.4358ZM172.419 56.0508V46.8208H174.213V54.4778H178.919V56.0508H172.419Z" fill="#0073E6"/>
</svg>
