<svg width="87" height="48" viewBox="0 0 87 48" fill="none" xmlns="http://www.w3.org/2000/svg">
<g clip-path="url(#clip0_1308_719)">
<path d="M20.4586 0.912686L38.148 18.9932C38.6608 19.5174 38.6608 20.3673 38.148 20.8915L20.4586 38.9721C19.9457 39.4963 19.1143 39.4963 18.6014 38.9721L0.911992 20.8915C0.399128 20.3673 0.399128 19.5174 0.911992 18.9932L18.6014 0.912686C19.1143 0.38848 19.9457 0.38848 20.4586 0.912686Z" fill="#0073E6"/>
<path fill-rule="evenodd" clip-rule="evenodd" d="M20.1893 6.43148L32.7488 19.2687C33.1128 19.6408 33.1128 20.2442 32.7488 20.6164L20.1893 33.4537C19.8252 33.8258 19.2348 33.8258 18.8707 33.4537L6.31118 20.6164C5.94705 20.2442 5.94705 19.6408 6.31118 19.2687L18.8707 6.43148C19.2348 6.0593 19.8252 6.0593 20.1893 6.43148Z" fill="white"/>
<path d="M68.419 6.52987L86.1084 24.6104C86.6212 25.1346 86.6212 25.9845 86.1084 26.5087L68.419 44.5893C67.9062 45.1135 67.0747 45.1135 66.5618 44.5893L48.8724 26.5087C48.3596 25.9845 48.3596 25.1346 48.8724 24.6104L66.5618 6.52987C67.0747 6.00567 67.9062 6.00567 68.419 6.52987Z" fill="#0073E6"/>
<path fill-rule="evenodd" clip-rule="evenodd" d="M68.1102 12.858L79.9161 24.9251C80.2584 25.2749 80.2584 25.8421 79.9161 26.1919L68.1102 38.2589C67.768 38.6088 67.213 38.6088 66.8707 38.2589L55.0648 26.1919C54.7225 25.8421 54.7225 25.2749 55.0648 24.9251L66.8707 12.858C67.213 12.5083 67.768 12.5083 68.1102 12.858Z" fill="white"/>
<path d="M41.6339 22.898L52.9551 34.4697C53.2833 34.8051 53.2833 35.3491 52.9551 35.6845L41.6339 47.2562C41.3057 47.5916 40.7735 47.5916 40.4453 47.2562L29.1241 35.6845C28.7959 35.3491 28.7959 34.8051 29.1241 34.4697L40.4453 22.898C40.7735 22.5626 41.3057 22.5626 41.6339 22.898Z" fill="#0073E6"/>
<path d="M41.6339 22.898L52.9551 34.4697C53.2833 34.8051 53.2833 35.3491 52.9551 35.6845L41.6339 47.2562C41.3057 47.5916 40.7735 47.5916 40.4453 47.2562L29.1241 35.6845C28.7959 35.3491 28.7959 34.8051 29.1241 34.4697L40.4453 22.898C40.7735 22.5626 41.3057 22.5626 41.6339 22.898Z" fill="#0073E6"/>
<path d="M39.4876 14.5L46 7.5805L52.5124 14.5L46 21.4195L39.4876 14.5ZM52.9279 14.0585L52.9278 14.0586L52.9279 14.0585ZM39.0721 14.9415L39.0722 14.9414L39.0721 14.9415Z" stroke="#0073E6" stroke-width="2.5"/>
<path fill-rule="evenodd" clip-rule="evenodd" d="M41.4127 27.4371L48.5152 34.6967C48.7211 34.9071 48.7211 35.2483 48.5152 35.4588L41.4127 42.7183C41.2068 42.9287 40.8729 42.9287 40.667 42.7183L33.5646 35.4588C33.3587 35.2483 33.3587 34.9071 33.5646 34.6967L40.667 27.4371C40.8729 27.2267 41.2068 27.2267 41.4127 27.4371Z" fill="white"/>
</g>
<defs>
<clipPath id="clip0_1308_719">
<rect width="87" height="48" fill="white"/>
</clipPath>
</defs>
</svg>
